<svg xmlns="http://www.w3.org/2000/svg" width="1024" height="1024" viewBox="0 0 1024 1024">
<g>
<path d="M 0.00 0.00 L 1024.00 0.00 L 1024.00 1024.00 L 0.00 1024.00 ZM 239.00 265.00 L 239.00 759.00 L 294.25 759.00 L 349.50 759.00 L 349.24 592.91 C349.08,491.37 349.34,426.96 349.91,427.16 C350.82,427.49 359.92,437.17 412.32,493.50 C426.64,508.90 443.00,526.34 448.68,532.25 L 459.00 542.99 L 459.00 718.00 L 565.00 718.00 L 565.00 542.91 L 576.25 531.20 C587.29,519.72 649.97,452.83 665.57,435.89 L 673.50 427.27 L 673.75 593.14 L 674.01 759.00 L 785.00 759.00 L 785.00 263.68 L 748.25 264.34 C728.04,264.70 703.39,265.00 693.47,265.00 L 675.43 265.00 L 660.34 281.25 C644.54,298.26 626.35,317.44 594.50,350.69 C584.05,361.60 561.19,385.63 543.70,404.10 L 511.91 437.69 L 498.12 423.59 C490.54,415.84 474.50,398.92 462.49,386.00 C450.47,373.08 427.75,349.00 411.99,332.50 C396.23,316.00 375.51,294.06 365.93,283.75 L 348.52 265.00 Z" fill="rgb(18,19,21)"/>
<path d="M 239.00 512.00 L 239.00 265.00 L 293.76 265.00 L 348.52 265.00 L 365.93 283.75 C375.51,294.06 396.23,316.00 411.99,332.50 C427.75,349.00 450.47,373.08 462.49,386.00 C474.50,398.92 490.54,415.84 498.12,423.59 L 511.91 437.69 L 543.70 404.10 C561.19,385.63 584.05,361.60 594.50,350.69 C626.35,317.44 644.54,298.26 660.34,281.25 L 675.43 265.00 L 693.47 265.00 C703.39,265.00 728.04,264.70 748.25,264.34 L 785.00 263.68 L 785.00 511.34 L 785.00 759.00 L 729.50 759.00 L 674.01 759.00 L 673.75 593.14 L 673.50 427.27 L 665.57 435.89 C649.97,452.83 587.29,519.72 576.25,531.20 L 565.00 542.91 L 565.00 630.45 L 565.00 718.00 L 512.00 718.00 L 459.00 718.00 L 459.00 630.50 L 459.00 542.99 L 448.68 532.25 C443.00,526.34 426.64,508.90 412.32,493.50 C359.92,437.17 350.82,427.49 349.91,427.16 C349.34,426.96 349.08,491.37 349.24,592.91 L 349.50 759.00 L 294.25 759.00 L 239.00 759.00 L 239.00 512.00 Z" fill="rgb(249,249,249)"/>
</g>
</svg>
